<svg width="247" height="198" viewBox="0 0 247 198" fill="none" xmlns="http://www.w3.org/2000/svg">
<path d="M168.75 86.5C168.15 89.7 167.5 98.8333 167.25 103M220.001 180.875C213.001 182 203.751 190.125 192.251 192.25C188.797 192.888 184.554 193.583 180.25 194.215C174.196 195.105 168.021 195.871 163.75 196.185C160.947 196.391 158.965 196.402 158.376 196.125C157.969 195.933 157.673 194.999 157.486 193.5C157.248 191.588 157.187 188.756 157.299 185.375C157.383 182.84 157.565 179.996 157.842 177C158.336 171.65 159.136 165.812 160.23 160.375C161.066 156.217 162.074 152.293 163.251 149M132.875 196.875C132.918 196.701 132.965 196.469 133.017 196.185C133.471 193.729 134.313 187.314 135.721 179.375C138 166.522 141.761 149.676 147.75 139.167M163.251 122.75C159.495 128.239 154.405 134.321 147.75 139.167M147.75 139.167C145.766 140.613 143.644 141.948 141.375 143.125C139.417 144.794 134.201 150.418 131.125 151.277M131.125 151.277C131.144 151.605 131.161 151.93 131.178 152.25M131.125 151.277C130.095 151.565 129.01 151.795 127.875 151.959C126.563 152.149 125.185 152.25 123.75 152.25M207.75 193.5C210.78 192.756 214.556 190.972 219.25 189.35C225.596 187.157 233.62 185.26 243.75 186.625M172.263 37C174.763 44.8 173.805 63.8333 173.013 72.375C173.597 71 175.313 68.35 177.513 68.75C179.628 69.1344 181.668 70.4792 182.385 73.75C182.6 74.7337 182.696 75.8916 182.638 77.25C182.388 83.125 180.888 91.375 178.763 95C176.638 98.625 174.388 106 171.388 105.625C168.388 105.25 167.888 103.75 167.513 102.875C167.138 102 167.263 104.625 166.763 107.75C166.263 110.875 165.625 119.375 163.263 122.375C163.208 128.47 163.137 138.903 163.156 145.875C163.166 149.342 163.197 151.953 163.263 152.75C163.513 155.75 169.888 159.875 176.763 163.875C183.638 167.875 195.513 173.25 209.638 178.125C223.763 183 228.888 180.625 243.388 186.5C244.378 186.901 245.331 187.284 246.25 187.654M172.263 37C169.138 27.25 154.863 1 123.613 1C123.617 1 123.621 1 123.625 1M172.263 37C169.139 27.2513 154.866 1.00711 123.625 1M78.5 86.5C79.1 89.7 79.75 98.8333 80 103M27.2499 180.875C34.2499 182 43.4999 190.125 54.9999 192.25C58.4535 192.888 62.6961 193.583 67 194.215C73.0541 195.105 79.2293 195.871 83.5 196.185C86.3032 196.391 88.2858 196.402 88.875 196.125C89.2819 195.933 89.5777 194.999 89.7645 193.5C90.0029 191.588 90.0638 188.756 89.9515 185.375C89.8674 182.84 89.6858 179.996 89.4088 177C88.9141 171.65 88.1147 165.812 87.021 160.375C86.1846 156.217 85.1761 152.293 84 149M114.375 196.875C114.333 196.701 114.285 196.469 114.233 196.185C113.78 193.729 112.937 187.314 111.529 179.375C109.25 166.522 105.489 149.676 99.5 139.167M84 122.75C87.7553 128.239 92.8458 134.321 99.5 139.167M99.5 139.167C101.484 140.613 106.232 146.198 108.5 147.375C110.459 149.044 113.049 150.418 116.125 151.277M116.125 151.277C116.107 151.605 116.089 151.93 116.072 152.25M116.125 151.277C117.156 151.565 118.241 151.795 119.375 151.959C120.687 152.149 122.065 152.25 123.5 152.25M39.5 193.5C36.4702 192.756 32.6946 190.972 28 189.35C21.6546 187.157 13.6303 185.26 3.5 186.625M74.9871 37C72.4871 44.8 73.4454 63.8333 74.2371 72.375C73.6537 71 71.9371 68.35 69.7371 68.75C67.6229 69.1344 65.5826 70.4792 64.8658 73.75C64.6501 74.7337 64.5543 75.8916 64.6121 77.25C64.8621 83.125 66.3621 91.375 68.4871 95C70.6121 98.625 72.8621 106 75.8621 105.625C78.8621 105.25 79.3621 103.75 79.7371 102.875C80.1121 102 79.9871 104.625 80.4871 107.75C80.9871 110.875 81.625 119.375 83.987 122.375C84.0427 128.47 84.1132 138.903 84.0943 145.875C84.0849 149.342 84.0535 151.953 83.987 152.75C83.737 155.75 77.3621 159.875 70.4871 163.875C63.6121 167.875 51.7371 173.25 37.6121 178.125C23.4871 183 18.3621 180.625 3.86206 186.5C2.87265 186.901 1.91989 187.284 1 187.654M74.9871 37C78.1121 27.25 92.3879 1 123.638 1C123.634 1 123.629 1 123.625 1M74.9871 37C78.1116 27.2513 92.384 1.00711 123.625 1" stroke="black" stroke-linecap="round" stroke-linejoin="round"/>
</svg>
